<?xml version="1.0" encoding="UTF-8"?>
<svg id="Layer_1" xmlns="http://www.w3.org/2000/svg" version="1.1" viewBox="0 0 32 32">
  <!-- Generator: Adobe Illustrator 30.2.1, SVG Export Plug-In . SVG Version: 2.1.1 Build 1)  -->
  <defs>
    <style>
      .st0 {
        fill: #00a488;
      }

      .st1 {
        fill: #00a887;
      }

      .st2 {
        fill: #10cfc9;
      }

      .st3 {
        fill: #005257;
      }

      .st4 {
        fill: #00848d;
      }
    </style>
  </defs>
  <polygon class="st3" points="4.66 20.7 15.46 31.5 15.46 27.2 8.93 20.7 4.66 20.7"/>
  <polygon class="st3" points="16.54 27.2 16.54 31.5 27.34 20.7 23.07 20.7 16.54 27.2"/>
  <polygon class="st2" points="15.46 9.33 15.46 9.1 15.46 6.34 15.46 6.33 15.46 4.84 11.12 .53 11.12 .53 6.86 .5 8.39 2.04 9.63 3.27 10.54 4.18 11.78 5.42 12.69 6.33 12.69 6.33 6.33 6.33 6.33 6.34 3.29 9.33 15.46 9.33"/>
  <polygon class="st1" points="8.39 17.41 9.63 16.17 10.54 15.26 11.78 14.03 12.69 13.12 13.93 11.88 15.46 10.34 11.2 10.34 6.88 14.68 6.89 14.68 6.86 18.95 8.39 17.41"/>
  <polygon class="st2" points="25.67 6.34 25.67 6.33 19.58 6.33 19.31 6.34 19.31 6.33 20.22 5.42 21.46 4.18 22.37 3.27 23.61 2.04 25.14 .5 20.88 .53 20.88 .53 16.54 4.84 16.54 6.34 16.54 9.1 16.54 9.33 28.71 9.33 25.67 6.34"/>
  <polygon class="st0" points="19.25 13.12 20.16 14.03 21.4 15.26 22.31 16.17 23.55 17.41 25.08 18.95 25.05 14.68 25.06 14.68 20.74 10.34 16.48 10.34 18.01 11.88 19.25 13.12"/>
  <polygon class="st4" points="17.47 13.13 14.51 13.13 12.78 14.9 19.22 14.9 17.47 13.13"/>
  <polygon class="st4" points="17.47 15.94 14.51 15.94 12.78 17.71 19.22 17.71 17.47 15.94"/>
  <polygon class="st4" points="17.47 18.74 14.51 18.74 12.78 20.51 19.22 20.51 17.47 18.74"/>
  <polygon class="st4" points="12.78 23.32 19.22 23.32 17.47 21.55 14.51 21.55 12.78 23.32"/>
</svg>