<?xml version="1.0" encoding="UTF-8"?>
<svg id="Layer_1" xmlns="http://www.w3.org/2000/svg" version="1.1" viewBox="0 0 512 512">
  <!-- Generator: Adobe Illustrator 30.2.1, SVG Export Plug-In . SVG Version: 2.1.1 Build 1)  -->
  <defs>
    <style>
      .st0 {
        fill: #fff;
      }
    </style>
  </defs>
  <polygon class="st0" points="73.04 331.55 247.21 505.74 247.21 436.3 141.84 331.55 73.04 331.55"/>
  <polygon class="st0" points="264.55 436.3 264.55 505.74 438.72 331.55 369.93 331.55 264.55 436.3"/>
  <polygon class="st0" points="247.21 148.2 247.21 144.53 247.21 99.96 247.21 99.84 247.21 75.72 177.22 6.16 177.22 6.3 108.43 5.74 133.18 30.51 153.18 50.49 167.79 65.16 187.78 85.1 202.45 99.77 202.53 99.84 99.87 99.84 99.99 99.96 50.92 148.2 247.21 148.2"/>
  <polygon class="st0" points="133.2 278.5 153.2 258.49 167.85 243.88 187.79 223.9 202.46 209.22 222.46 189.25 247.21 164.47 178.41 164.47 108.85 234.45 109.01 234.45 108.44 303.25 133.2 278.5"/>
  <polygon class="st0" points="411.79 99.96 411.89 99.84 313.57 99.84 309.23 99.86 309.32 99.77 323.98 85.1 343.97 65.16 358.58 50.49 378.58 30.51 403.33 5.74 334.55 6.3 334.55 6.16 264.55 75.72 264.55 99.96 264.55 144.53 264.55 148.2 460.85 148.2 411.79 99.96"/>
  <polygon class="st0" points="308.34 209.22 322.99 223.9 342.93 243.88 357.6 258.49 377.6 278.5 402.35 303.25 401.79 234.45 401.95 234.45 332.37 164.47 263.58 164.47 288.34 189.25 308.34 209.22"/>
  <polygon class="st0" points="279.62 209.42 231.91 209.42 203.95 237.97 307.83 237.97 279.62 209.42"/>
  <polygon class="st0" points="279.62 254.84 231.91 254.84 203.95 283.38 307.83 283.38 279.62 254.84"/>
  <polygon class="st0" points="279.62 299.93 231.91 299.93 203.95 328.48 307.83 328.48 279.62 299.93"/>
  <polygon class="st0" points="203.95 373.76 307.83 373.76 279.62 345.21 231.91 345.21 203.95 373.76"/>
</svg>