<?xml version="1.0" encoding="UTF-8"?>
<svg id="Layer_1" xmlns="http://www.w3.org/2000/svg" version="1.1" viewBox="0 0 222.12 80">
  <!-- Generator: Adobe Illustrator 30.2.1, SVG Export Plug-In . SVG Version: 2.1.1 Build 1)  -->
  <defs>
    <style>
      .st0 {
        fill: #fff;
      }

      .st1 {
        fill: #002f56;
      }
    </style>
  </defs>
  <g>
    <g>
      <path class="st0" d="M179.75,62.24c-.65.44-1.38.57-2.13.58-2.04.01-4.08.01-6.12,0-.65,0-1.25-.16-1.77-.58-.71.47-1.5.58-2.31.58-4.69,0-9.38,0-14.08,0-1.2-.98-2.41-1.96-3.61-2.95.05-1.54-.13-3.1.16-4.62.41-1.78,1.54-2.81,3.32-3.15.5-.1,1.03-.15,1.54-.15,2.42-.02,6.85,0,6.85,0h0c0,2.62,0,4.93,0,9.12h5.92v-7.71h3.45v2.04s0,3.04,0,4.55c-.01.83.22,1.15,1.08,1.13,1.83,0,3.67.02,5.5,0v-7.72h3.44c0,2.29,0,3.48.01,6.6,0,.86.23,1.16,1.11,1.14,2.04,0,4.08.01,6.13,0-.52-.8-.83-1.67-.85-2.62-.04-.99-.04-2.99-.04-2.99v-1.78h3.31v-4.28c1.84-.03,3.67-.02,5.51,0,4.17.07,7.11,2.72,6.93,7.01-1.09.97-2.15,1.92-3.23,2.87.56.91,1.29,1.89,2.48,1.79,1.4-.02,2.79,0,4.19,0v-14.77h3.48c0,2.43,0,7.28,0,12.96.07,2.45-1.33,3.58-3.7,3.55-1.78.01-3.55-.01-5.33.01-1.38.04-2.51-.53-3.49-1.46-.53.48-1.07.96-1.62,1.45h-14.1c-.73,0-1.44-.13-2.03-.58h0ZM158.12,53.71c-.97-.05-1.97-.02-2.94.02-1.39.05-1.99,1.3-1.98,2.56,0,1.31-.02,2.63,0,3.94.35.29.7.57,1.02.83h3.9v-7.35h0ZM196.3,59.85c-.85-1.49-1.69-2.96-2.53-4.43h-2.91c-.02,1.02,0,2.03,0,3.05,0,1.36.64,2.53,2.11,2.58.64.04,1.29,0,1.96,0,.45-.39.91-.81,1.37-1.21h0ZM196.65,53.68c.75,1.29,1.49,2.57,2.24,3.87.25-.21.47-.41.69-.6,0-1.32.11-2.65-.51-3.85-.53-1.07-1.34-1.8-2.56-1.93-.78-.06-1.6-.07-2.37-.02v2.53h2.51Z"/>
      <path class="st0" d="M216.33,62.81h-3.45v-16.5h3.45v16.5Z"/>
      <path class="st0" d="M171.88,47.39v2.22h-1.73v-1.28c-.74-.19-1.24.17-1.25.9,0,.42,0,.84,0,1.26.18.16.35.32.54.49h2.95v1.15h-5.85v-1.15h1.22c-.28-.25-.53-.47-.74-.66-.04-1.3-.15-2.61,1.44-2.9.83-.13,3.31-.04,3.43-.06h0s0,.01,0,.01Z"/>
      <path class="st0" d="M158.48,45.88c.67.67,1.35,1.35,2.01,2.01-.67.67-1.35,1.35-2.02,2.02-.66-.64-1.35-1.31-2.04-1.97-.66.66-1.34,1.34-2.03,2.03-.68-.7-1.34-1.37-2.02-2.06.67-.69,1.33-1.36,2-2.05.68.69,1.36,1.36,2.02,2.03.7-.68,1.39-1.35,2.07-2h0Z"/>
      <path class="st0" d="M174.71,66.68c.7-.68,1.39-1.34,2.05-1.98.64.64,1.32,1.32,1.98,1.98-.65.65-1.33,1.33-1.98,1.98-.67-.65-1.36-1.31-2.05-1.98h0Z"/>
      <path class="st0" d="M182.84,66.68c-.65.65-1.33,1.33-1.99,1.98-.67-.65-1.36-1.31-2.06-1.99.7-.68,1.39-1.34,2.05-1.99.64.64,1.32,1.32,1.99,2Z"/>
    </g>
    <g>
      <path class="st0" d="M109.09,46.31h3.48v14.76h6.97c-.92-.87-1.51-1.92-1.71-3.17-.17-1.03-.27-2.07-.39-3.11.71-.96,1.42-1.92,2.12-2.88,1.77,0,3.52-.02,5.28.04,1.19.05,2.34.3,3.38.92,2.23,1.22,2.27,3.99,1.15,6.02-.47.86-1.1,1.57-1.88,2.17h7.23v-14.75h3.48c0,2.58,0,7.2,0,12.96.07,1.7-.69,3.15-2.47,3.44-8.86.31-17.76.02-26.63.12,0-6.67,0-14.24,0-16.51h0ZM120.79,53.67c.06.79.16,1.57.25,2.35.09.7.17,1.4.32,2.09.29,1.29,1.09,2.68,2.48,2.98,1.79-1.1,2.89-3.13,2.74-5.24-.04-.68-.31-1.27-.86-1.7-.48-.37-1.04-.49-1.63-.49-1.1,0-2.2-.02-3.31,0h0Z"/>
      <path class="st0" d="M97.62,62.82c-.61-.61-1.22-1.23-1.84-1.86-.67,1.04-1.72,1.64-2.93,1.78-4.47.2-8.96.02-13.44.08-1.2-.98-2.41-1.97-3.63-2.97.02-1.28,0-2.56.07-3.84.05-.93.34-1.81.95-2.55.97-1.2,2.54-1.49,4-1.52,2.42-.02,6.87,0,6.87,0h0c0,2.47,0,4.98,0,9.14h2.32c.96-.02,2.08.22,2.52-.86.18-.41.3-.84.39-1.28.27-1.31.47-2.62.76-3.92.18-.85.59-1.59,1.28-2.14.96-.77,2.23-.85,3.41-.88,2.59-.01,7.44,0,7.44,0-.02,2.34.04,3.67-.01,6.67-.03,1.05-.34,2.02-1.09,2.8-1.77,1.82-4.74,1.28-7.07,1.36h0ZM102.32,53.75c-1.18,0-2.33-.02-3.48,0-1.36.03-1.66,1.04-1.85,2.21-.18.96-.36,1.92-.52,2.8.77.8,1.5,1.55,2.2,2.28,1.3,0,2.88.24,3.41-1.25.13-.35.22-.74.23-1.11.02-1.65.03-3.3.01-4.94h0ZM84.19,61.07v-7.41c-1.02.02-2.03.01-3.03.08-1.1.03-1.79,1.06-1.85,2.09-.03,1.46-.01,2.92-.01,4.42.32.26.67.55,1,.82h3.89,0Z"/>
      <path class="st0" d="M141.06,46.3h3.45c0,2.8,0,9.57,0,16.5h-3.45v-16.5h0Z"/>
      <path class="st0" d="M80.47,45.85c.68.69,1.36,1.37,2.02,2.04.7-.68,1.39-1.35,2.07-2.01.67.67,1.34,1.35,2.01,2.01-.67.67-1.35,1.35-2.02,2.02-.67-.65-1.35-1.31-2.05-1.99-.66.67-1.34,1.35-2.03,2.03-.67-.69-1.34-1.37-2.01-2.06.67-.69,1.33-1.36,2.01-2.05h0Z"/>
    </g>
    <g>
      <path class="st0" d="M40.36,51.91c1.76,0,3.51-.01,5.26.04,1.2.04,2.35.29,3.4.92,2.25,1.23,2.27,4.02,1.13,6.05-.47.85-1.1,1.55-1.87,2.14h7.22v-14.75h3.48v2.08s0,7.15,0,10.73c.02.67-.08,1.31-.28,1.95h5.58v-14.76h3.46c.02,3.27-.01,6.93.01,12.97,0,.49-.03.98-.18,1.46-.35,1.14-1.15,1.75-2.28,1.97-17.2.33-34.43.01-51.65.12,0-6.68,0-14.22,0-16.51h3.47v14.76h7.09c-.83-.85-1.67-1.7-2.51-2.57.03-1.04-.08-2.08.17-3.12.41-1.73,1.53-2.73,3.25-3.06.53-.1,1.09-.15,1.63-.16,2.35-.02,6.68,0,6.68,0h0c0,2.29,0,3.55.01,6.54,0,.79.03,1.59-.28,2.36h7.15c-.92-.87-1.5-1.92-1.7-3.16-.18-1.03-.27-2.07-.39-3.11.71-.96,1.42-1.92,2.12-2.88h0ZM44.65,61.1c1.79-1.09,2.89-3.13,2.75-5.23-.04-.7-.31-1.3-.89-1.73-.47-.35-1.02-.47-1.6-.47-1.11.01-2.21-.02-3.32.01.15,1.32.27,2.62.47,3.93.23,1.46,1.02,3.13,2.59,3.49ZM25.22,59.12c.66.66,1.3,1.3,1.94,1.94.66,0,1.33.01,2,0,.4-.01.66-.26.76-.64.05-.2.07-.42.08-.64,0-1.96.02-3.93,0-5.89-.89-.03-1.79-.02-2.69.01-1.08.04-1.8.67-1.98,1.74-.15,1.13-.09,2.36-.1,3.49h0Z"/>
      <path class="st0" d="M3.52,67.32c-.19-.43-.37-.84-.56-1.29,2.38.25,3.92-1.81,3.9-4.02.02-3.42,0-6.62,0-10.05h3.46c0,3.13.03,6.65,0,9.9.08,3.9-3.16,5.99-6.81,5.47h0Z"/>
      <path class="st0" d="M28.7,47.84c-.68.66-1.36,1.32-2.03,1.97-.67-.65-1.35-1.31-2.04-1.97.7-.68,1.39-1.34,2.11-2.04.61.63,1.27,1.32,1.92,1.99.71-.69,1.39-1.35,2.07-2.01.66.68,1.33,1.37,1.97,2.04-.63.65-1.29,1.34-1.95,2.01-.7-.68-1.38-1.34-2.06-1.99h0Z"/>
    </g>
    <path class="st0" d="M8.69,78.65l-1.71-2.56h-2.14v2.56h-1.43v-7.71h3.37c2.35,0,3.33.78,3.33,2.51,0,1.28-.52,2.07-1.61,2.42l1.87,2.78h-1.69,0ZM4.85,74.86h2.02c1.27,0,1.76-.38,1.76-1.33s-.5-1.33-1.76-1.33h-2.02v2.67Z"/>
    <path class="st0" d="M17.77,72.22h-4.58v1.92h4.24v1.22h-4.24v2.02h4.67v1.28h-6.1v-7.71h6.01v1.28h0Z"/>
    <path class="st0" d="M24.88,76.96h-3.76l-.69,1.7h-1.62l3.25-7.71h1.88l3.26,7.71h-1.63l-.69-1.7h0ZM24.38,75.77l-1.39-3.38-1.39,3.38h2.78,0Z"/>
    <path class="st0" d="M30.03,77.36h4.08v1.29h-5.51v-7.71h1.43v6.42h0Z"/>
    <path class="st0" d="M44.27,72.22h-4.58v1.92h4.24v1.22h-4.24v2.02h4.67v1.28h-6.1v-7.71h6.01v1.28h0Z"/>
    <path class="st0" d="M51.27,72.8c-.83-.44-1.84-.73-2.62-.73-.82,0-1.39.31-1.39.94,0,.41.22.58,1.44.91,1.69.47,3.41.78,3.38,2.46.04,3.05-4.83,2.76-6.71,1.36l.66-1.08c1.07.7,4.45,1.6,4.54-.2,0-.53-.3-.68-1.4-.96-1.78-.45-3.5-.75-3.47-2.39.06-2.94,4.42-2.57,6.19-1.45l-.63,1.15h0Z"/>
    <path class="st0" d="M59.37,72.2h-2.47v6.45h-1.43v-6.45h-2.47v-1.26h6.37v1.26h0Z"/>
    <path class="st0" d="M65.38,76.96h-3.76l-.69,1.7h-1.62l3.25-7.71h1.88l3.26,7.71h-1.63l-.69-1.7h0ZM64.88,75.77l-1.39-3.38-1.39,3.38h2.78,0Z"/>
    <path class="st0" d="M74.03,72.2h-2.47v6.45h-1.43v-6.45h-2.47v-1.26h6.37v1.26h0Z"/>
    <path class="st0" d="M81.42,72.22h-4.58v1.92h4.24v1.22h-4.24v2.02h4.67v1.28h-6.1v-7.71h6.01v1.28Z"/>
    <path class="st0" d="M91.67,72.89c-1.68-1.54-4.66-.56-4.65,1.91.02,2.42,2.75,3.32,4.54,2.05v-1.31h-1.86v-1.16h3.22v3.21c-.88.75-2.06,1.18-3.29,1.18-2.21.04-4.16-1.83-4.11-3.97-.04-3.65,4.59-5.17,7.09-2.87l-.94.97h0Z"/>
    <path class="st0" d="M100.92,72.22h-4.58v1.92h4.24v1.22h-4.24v2.02h4.67v1.28h-6.1v-7.71h6.01v1.28Z"/>
    <path class="st0" d="M109.54,70.94v7.71h-1.51l-4.08-5.54v5.54h-1.41v-7.71h1.51l4.09,5.54v-5.54h1.4Z"/>
    <path class="st0" d="M117.62,72.22h-4.58v1.92h4.24v1.22h-4.24v2.02h4.67v1.28h-6.1v-7.71h6.01v1.28Z"/>
    <path class="st0" d="M124.53,78.65l-1.71-2.56h-2.14v2.56h-1.43v-7.71h3.37c2.35,0,3.33.78,3.33,2.51,0,1.28-.52,2.07-1.61,2.42l1.87,2.78h-1.69,0ZM120.68,74.86h2.02c1.27,0,1.76-.38,1.76-1.33s-.49-1.33-1.76-1.33h-2.02v2.67Z"/>
    <path class="st0" d="M133.15,76.96h-3.76l-.69,1.7h-1.62l3.25-7.71h1.88l3.26,7.71h-1.63l-.69-1.7h0ZM132.65,75.77l-1.39-3.38-1.39,3.38h2.78,0Z"/>
    <path class="st0" d="M138.3,77.36h4.08v1.29h-5.51v-7.71h1.43v6.42h0Z"/>
    <path class="st0" d="M151.92,76.96h-3.76l-.69,1.7h-1.62l3.25-7.71h1.88l3.26,7.71h-1.63l-.69-1.7h0ZM151.43,75.77l-1.39-3.38-1.39,3.38h2.78,0Z"/>
    <path class="st0" d="M162.22,75.17c0,2.3-1.23,3.59-3.44,3.59s-3.45-1.3-3.45-3.59v-4.23h1.43v4.23c0,1.45.74,2.27,2.02,2.27s2.01-.82,2.01-2.27v-4.23h1.43v4.23h0Z"/>
    <path class="st0" d="M169.98,72.2h-2.47v6.45h-1.43v-6.45h-2.47v-1.26h6.37v1.26h0Z"/>
    <path class="st0" d="M178.35,78.65h-1.43v-3.24h-4.13v3.24h-1.43v-7.71h1.43v3.18h4.13v-3.18h1.43v7.71Z"/>
    <path class="st0" d="M184.24,78.76c-2.21.04-4.16-1.83-4.11-3.97-.06-2.14,1.89-4.01,4.11-3.97,2.2-.04,4.13,1.83,4.09,3.97.04,2.14-1.88,4.01-4.09,3.97ZM184.24,77.42c1.45,0,2.59-1.18,2.59-2.62-.11-3.48-5.08-3.47-5.19,0,0,1.44,1.14,2.62,2.6,2.62h0Z"/>
    <path class="st0" d="M195.38,78.65l-1.71-2.56h-2.14v2.56h-1.43v-7.71h3.37c2.35,0,3.33.78,3.33,2.51,0,1.28-.52,2.07-1.61,2.42l1.87,2.78h-1.69ZM191.54,74.86h2.02c1.27,0,1.76-.38,1.76-1.33s-.49-1.33-1.76-1.33h-2.02v2.67Z"/>
    <path class="st0" d="M199.88,78.65h-1.43v-7.71h1.43v7.71Z"/>
    <path class="st0" d="M207.64,72.2h-2.47v6.45h-1.43v-6.45h-2.47v-1.26h6.37v1.26h0Z"/>
    <path class="st0" d="M216.33,70.94l-3.19,4.98v2.73h-1.44v-2.72l-3.19-4.99h1.72l2.2,3.48,2.21-3.48h1.7,0Z"/>
  </g>
  <g>
    <polygon class="st0" points="53.45 25.06 53.45 19.81 41.76 19.81 41.76 10.71 57.92 10.71 57.92 5.94 35.17 5.94 35.17 39.77 61.4 39.77 61.4 35 41.76 35 41.76 25.06 53.45 25.06"/>
    <path class="st0" d="M111.11,39.73h7.04V5.95h-16.09c-4.09,8.4-12.34,25.45-16.35,33.82h7.16l7.61-15.67,10.63,15.63h0ZM106.96,10.67h4.74v19.54l-8.1-12.03,3.36-7.51h0Z"/>
    <path class="st0" d="M67.51,6.7c-7.09,2.52-10.67,9.08-10.57,16.49-.09,7.06,3.65,13.12,10.36,15.48,2.22.82,4.79,1.23,7.64,1.23,2.18,0,7.91-.08,10.79-.12v-20.42h-12.26v5.28h6.57v9.83c-1.25.45-1.12.46-3.25.43-7.81.24-13.47-4.28-13.27-12.54-.04-3.54,1.3-6.9,3.52-9.07,4.18-4,11.51-3.77,16.63-1.73l.8-4.43c-4.1-2.1-12.27-2.32-16.95-.44h0Z"/>
    <path class="st0" d="M17.58,27.59l9.65,12.18h7.95l-10.07-12.18,5.94-6.61v-7.55c0-4.13-3.36-7.49-7.49-7.49H5.53v33.83h6.59v-12.35h5.32l.13.17h0ZM11.93,22.14l.12-11.46h7.98c3.02,0,5.2,2.32,5.2,3.89l-.12,4.23-2.97,3.34s-10.21,0-10.21,0Z"/>
  </g>
  <g>
    <polygon class="st1" points="-60.5 51.83 -33.33 79 -33.33 68.17 -49.77 51.83 -60.5 51.83"/>
    <polygon class="st1" points="-30.62 68.17 -30.62 79 -3.45 51.83 -14.18 51.83 -30.62 68.17"/>
    <polygon class="st1" points="-33.33 23.22 -33.33 22.65 -33.33 15.7 -33.33 15.68 -33.33 11.92 -44.25 1.07 -44.25 1.09 -54.98 1 -51.12 4.86 -48 7.98 -45.72 10.27 -42.6 13.38 -40.31 15.67 -40.3 15.68 -56.32 15.68 -56.3 15.7 -63.95 23.22 -33.33 23.22"/>
    <polygon class="st1" points="-51.12 43.55 -48 40.43 -45.71 38.15 -42.6 35.03 -40.31 32.74 -37.19 29.63 -33.33 25.76 -44.06 25.76 -54.91 36.68 -54.89 36.68 -54.98 47.41 -51.12 43.55"/>
    <polygon class="st1" points="-7.65 15.7 -7.64 15.68 -22.98 15.68 -23.65 15.68 -23.64 15.67 -21.35 13.38 -18.23 10.27 -15.96 7.98 -12.84 4.86 -8.97 1 -19.7 1.09 -19.7 1.07 -30.62 11.92 -30.62 15.7 -30.62 22.65 -30.62 23.22 0 23.22 -7.65 15.7"/>
    <polygon class="st1" points="-23.79 32.74 -21.51 35.03 -18.4 38.15 -16.11 40.43 -12.99 43.55 -9.13 47.41 -9.21 36.68 -9.19 36.68 -20.04 25.76 -30.78 25.76 -26.91 29.63 -23.79 32.74"/>
    <polygon class="st1" points="-28.27 32.78 -35.72 32.78 -40.08 37.23 -23.87 37.23 -28.27 32.78"/>
    <polygon class="st1" points="-28.27 39.86 -35.72 39.86 -40.08 44.31 -23.87 44.31 -28.27 39.86"/>
    <polygon class="st1" points="-28.27 46.89 -35.72 46.89 -40.08 51.35 -23.87 51.35 -28.27 46.89"/>
    <polygon class="st1" points="-40.08 58.41 -23.87 58.41 -28.27 53.96 -35.72 53.96 -40.08 58.41"/>
  </g>
</svg>