<?xml version="1.0" encoding="UTF-8"?>
<svg id="Layer_1" xmlns="http://www.w3.org/2000/svg" version="1.1" viewBox="0 0 600 200">
  <!-- Generator: Adobe Illustrator 30.2.1, SVG Export Plug-In . SVG Version: 2.1.1 Build 1)  -->
  <defs>
    <style>
      .st0 {
        fill: #002f56;
      }
    </style>
  </defs>
  <g>
    <g>
      <path class="st0" d="M520.59,147.36c-1.39.93-2.94,1.22-4.54,1.23-4.35.03-8.69.02-13.04,0-1.37,0-2.67-.34-3.78-1.24-1.5,1-3.19,1.24-4.92,1.24-10,0-19.99,0-29.99,0-2.56-2.09-5.12-4.18-7.69-6.29.11-3.29-.29-6.6.34-9.84.87-3.8,3.29-5.99,7.06-6.72,1.07-.21,2.18-.31,3.27-.32,5.15-.03,14.59-.01,14.59-.01h0c0,5.58.01,10.5.02,19.43h12.6v-16.43h7.35v4.35s0,6.47,0,9.7c-.02,1.76.47,2.45,2.3,2.41,3.91-.01,7.81.03,11.72-.01v-16.45h7.33c0,4.88,0,7.4.02,14.05-.02,1.84.49,2.46,2.37,2.42,4.35,0,8.7.03,13.05-.01-1.11-1.71-1.76-3.55-1.81-5.58-.1-2.12-.09-6.36-.09-6.36v-3.79h7.05v-9.11c3.91-.07,7.82-.05,11.73,0,8.89.14,15.14,5.8,14.76,14.92-2.32,2.06-4.58,4.08-6.87,6.12,1.2,1.94,2.75,4.02,5.28,3.82,2.97-.05,5.94-.02,8.92,0v-31.46h7.41c0,5.18,0,15.5,0,27.6.15,5.23-2.83,7.62-7.87,7.56-3.78.02-7.57-.03-11.35.02-2.95.08-5.34-1.13-7.43-3.11-1.13,1.02-2.28,2.05-3.45,3.09h-30.03c-1.55.02-3.06-.27-4.31-1.24h0ZM474.53,129.2c-2.06-.11-4.19-.05-6.26.03-2.95.11-4.23,2.78-4.22,5.46-.02,2.8-.04,5.6,0,8.4.75.61,1.48,1.21,2.17,1.78h8.31v-15.67h0ZM555.83,142.27c-1.81-3.18-3.6-6.31-5.38-9.43h-6.21c-.03,2.17-.01,4.33,0,6.5-.01,2.89,1.37,5.39,4.49,5.49,1.37.08,2.74.01,4.18.01.95-.84,1.95-1.72,2.92-2.58h0ZM556.6,129.14c1.59,2.74,3.17,5.48,4.78,8.24.52-.45,1.01-.88,1.47-1.27.02-2.82.23-5.64-1.1-8.21-1.13-2.27-2.86-3.84-5.45-4.11-1.66-.13-3.4-.14-5.04-.04v5.38h5.34Z"/>
      <path class="st0" d="M598.5,148.59h-7.34v-35.15h7.34v35.15Z"/>
      <path class="st0" d="M503.83,115.74v4.73h-3.69v-2.72c-1.58-.41-2.64.37-2.67,1.92-.01.89,0,1.78,0,2.69.37.34.75.69,1.14,1.05h6.29v2.46h-12.46v-2.46h2.6c-.6-.54-1.12-1-1.57-1.4-.09-2.77-.32-5.56,3.07-6.17,1.78-.27,7.06-.08,7.3-.13v.02h-.01Z"/>
      <path class="st0" d="M475.28,112.52c1.43,1.43,2.87,2.87,4.29,4.29-1.42,1.42-2.87,2.87-4.29,4.29-1.41-1.37-2.87-2.78-4.34-4.2-1.41,1.41-2.85,2.86-4.32,4.33-1.45-1.48-2.85-2.92-4.29-4.4,1.43-1.46,2.84-2.91,4.26-4.36,1.46,1.46,2.9,2.91,4.31,4.32,1.49-1.45,2.96-2.87,4.4-4.27h0Z"/>
      <path class="st0" d="M509.85,156.82c1.5-1.45,2.95-2.85,4.38-4.22,1.36,1.36,2.81,2.81,4.22,4.22-1.39,1.39-2.83,2.83-4.22,4.22-1.43-1.38-2.89-2.79-4.38-4.22h0Z"/>
      <path class="st0" d="M527.17,156.84c-1.39,1.39-2.83,2.82-4.23,4.22-1.44-1.39-2.9-2.8-4.39-4.24,1.5-1.45,2.95-2.86,4.37-4.24,1.37,1.37,2.82,2.82,4.25,4.25Z"/>
    </g>
    <g>
      <path class="st0" d="M370.07,113.43h7.41v31.44h14.84c-1.96-1.86-3.21-4.09-3.64-6.75-.37-2.19-.58-4.41-.83-6.62,1.51-2.05,3.02-4.09,4.52-6.13,3.77.01,7.5-.05,11.25.08,2.53.11,4.98.63,7.2,1.96,4.76,2.6,4.83,8.51,2.45,12.83-1,1.84-2.35,3.35-4.01,4.63h15.39v-31.42h7.4c0,5.49,0,15.34,0,27.6.14,3.62-1.48,6.7-5.25,7.32-18.87.67-37.82.04-56.72.25,0-14.21,0-30.34,0-35.18h0ZM395,129.13c.13,1.68.34,3.34.54,5.01.2,1.49.36,2.99.69,4.45.61,2.74,2.32,5.71,5.28,6.34,3.82-2.34,6.15-6.67,5.85-11.16-.1-1.46-.65-2.71-1.84-3.63-1.02-.79-2.21-1.04-3.47-1.04-2.35.02-4.69-.03-7.04.02h0Z"/>
      <path class="st0" d="M345.66,148.61c-1.29-1.3-2.6-2.62-3.92-3.95-1.43,2.21-3.67,3.49-6.24,3.79-9.52.42-19.09.04-28.63.16-2.57-2.1-5.13-4.19-7.73-6.32.04-2.72,0-5.46.15-8.19.1-1.99.73-3.85,2.03-5.42,2.06-2.56,5.4-3.18,8.52-3.23,5.16-.03,14.63-.01,14.63-.01h0c0,5.27,0,10.6.01,19.46h4.95c2.03-.05,4.42.46,5.37-1.84.38-.87.64-1.8.83-2.72.56-2.78,1.01-5.58,1.61-8.35.39-1.8,1.25-3.39,2.73-4.56,2.05-1.64,4.75-1.81,7.27-1.88,5.51-.02,15.84,0,15.84,0-.04,4.98.08,7.81-.03,14.21-.07,2.24-.72,4.31-2.32,5.97-3.78,3.88-10.1,2.72-15.06,2.91h0ZM355.66,129.3c-2.5,0-4.97-.05-7.42.01-2.9.06-3.54,2.22-3.93,4.71-.39,2.04-.76,4.08-1.11,5.97,1.64,1.69,3.2,3.31,4.69,4.85,2.77.02,6.13.52,7.25-2.65.28-.75.47-1.57.49-2.37.04-3.5.07-7.02.02-10.52h0ZM317.05,144.87v-15.78c-2.17.05-4.32.02-6.45.17-2.34.07-3.81,2.25-3.94,4.45-.06,3.11-.03,6.23-.03,9.42.68.55,1.42,1.16,2.13,1.74h8.29,0Z"/>
      <path class="st0" d="M438.18,113.42h7.35c0,5.97.01,20.38.01,35.15h-7.36v-35.15h0Z"/>
      <path class="st0" d="M309.13,112.45c1.46,1.47,2.89,2.92,4.3,4.34,1.49-1.45,2.96-2.87,4.41-4.28,1.42,1.42,2.86,2.87,4.29,4.29-1.43,1.43-2.88,2.88-4.3,4.3-1.43-1.39-2.88-2.8-4.36-4.24-1.41,1.42-2.86,2.87-4.33,4.33-1.44-1.47-2.84-2.91-4.28-4.38,1.43-1.46,2.84-2.91,4.27-4.38h0Z"/>
    </g>
    <g>
      <path class="st0" d="M223.68,125.37c3.74.01,7.47-.03,11.21.08,2.55.08,5.01.63,7.23,1.95,4.79,2.61,4.83,8.57,2.41,12.89-.99,1.81-2.34,3.29-3.97,4.55h15.39v-31.42h7.41v4.42s0,15.24.01,22.86c.05,1.43-.18,2.8-.59,4.15h11.88v-31.44h7.38c.05,6.96-.02,14.76.02,27.63,0,1.05-.07,2.09-.37,3.11-.74,2.42-2.46,3.73-4.86,4.19-36.63.69-73.35.02-110.01.25,0-14.22,0-30.29,0-35.18h7.4v31.44h15.11c-1.76-1.8-3.55-3.63-5.35-5.48.06-2.21-.17-4.44.35-6.64.87-3.69,3.26-5.81,6.91-6.52,1.13-.22,2.31-.32,3.47-.33,5-.03,14.23-.01,14.23-.01h0c0,4.87,0,7.56.02,13.93,0,1.69.07,3.38-.59,5.04h15.24c-1.95-1.86-3.2-4.08-3.62-6.73-.37-2.19-.58-4.41-.83-6.62,1.51-2.05,3.02-4.09,4.52-6.13h0ZM232.82,144.93c3.82-2.32,6.15-6.67,5.85-11.15-.1-1.49-.67-2.77-1.89-3.68-1.01-.75-2.17-1-3.4-1-2.36.02-4.72-.04-7.07.02.31,2.81.58,5.58,1,8.37.49,3.11,2.17,6.67,5.52,7.43ZM191.43,140.73c1.41,1.41,2.77,2.77,4.13,4.13,1.4,0,2.83.03,4.25,0,.86-.02,1.4-.56,1.61-1.37.11-.44.16-.9.16-1.35,0-4.18.04-8.36-.01-12.54-1.91-.07-3.82-.03-5.72.02-2.3.1-3.84,1.43-4.21,3.7-.32,2.41-.18,5.04-.21,7.43h0Z"/>
      <path class="st0" d="M145.21,158.19c-.4-.91-.78-1.79-1.2-2.76,5.06.54,8.35-3.84,8.32-8.56.04-7.28.01-14.11.02-21.41h7.37c0,6.66.06,14.17,0,21.08.17,8.3-6.73,12.76-14.51,11.64h0Z"/>
      <path class="st0" d="M198.84,116.69c-1.46,1.41-2.91,2.82-4.32,4.2-1.43-1.38-2.88-2.78-4.34-4.19,1.5-1.45,2.96-2.86,4.5-4.34,1.29,1.34,2.71,2.81,4.09,4.24,1.52-1.48,2.95-2.87,4.41-4.28,1.4,1.45,2.82,2.92,4.2,4.35-1.34,1.38-2.76,2.85-4.15,4.28-1.49-1.44-2.95-2.86-4.39-4.25h0Z"/>
    </g>
    <path class="st0" d="M156.23,182.33l-3.64-5.44h-4.55v5.44h-3.05v-16.42h7.18c5,0,7.09,1.67,7.09,5.35,0,2.72-1.1,4.41-3.42,5.16l3.99,5.91h-3.59,0ZM148.04,174.26h4.29c2.7,0,3.75-.8,3.75-2.84s-1.06-2.84-3.75-2.84h-4.29v5.68Z"/>
    <path class="st0" d="M175.56,168.63h-9.76v4.08h9.03v2.6h-9.03v4.29h9.95v2.72h-12.99v-16.42h12.81v2.72h0Z"/>
    <path class="st0" d="M190.71,178.72h-8l-1.48,3.61h-3.45l6.92-16.42h4.01l6.94,16.42h-3.47l-1.48-3.61h0ZM189.66,176.19l-2.95-7.2-2.95,7.2h5.91,0Z"/>
    <path class="st0" d="M201.68,179.59h8.68v2.74h-11.73v-16.42h3.05v13.68h0Z"/>
    <path class="st0" d="M232.01,168.63h-9.76v4.08h9.03v2.6h-9.03v4.29h9.95v2.72h-12.99v-16.42h12.81v2.72h0Z"/>
    <path class="st0" d="M246.93,169.88c-1.76-.94-3.92-1.55-5.58-1.55-1.76,0-2.95.66-2.95,1.99,0,.87.47,1.24,3.07,1.95,3.61,1,7.26,1.66,7.2,5.23.08,6.51-10.29,5.87-14.29,2.89l1.41-2.3c2.28,1.49,9.48,3.4,9.67-.42,0-1.13-.63-1.46-2.98-2.04-3.8-.95-7.45-1.6-7.39-5.09.12-6.27,9.41-5.48,13.19-3.1l-1.34,2.44h0Z"/>
    <path class="st0" d="M264.17,168.58h-5.26v13.75h-3.05v-13.75h-5.26v-2.68h13.56v2.68h0Z"/>
    <path class="st0" d="M276.97,178.72h-8l-1.48,3.61h-3.45l6.92-16.42h4.01l6.94,16.42h-3.47l-1.48-3.61h0ZM275.92,176.19l-2.95-7.2-2.95,7.2h5.91,0Z"/>
    <path class="st0" d="M295.41,168.58h-5.26v13.75h-3.05v-13.75h-5.26v-2.68h13.56v2.68h0Z"/>
    <path class="st0" d="M311.15,168.63h-9.76v4.08h9.03v2.6h-9.03v4.29h9.95v2.72h-13v-16.42h12.81v2.72Z"/>
    <path class="st0" d="M332.98,170.06c-3.58-3.27-9.92-1.18-9.9,4.06.05,5.16,5.85,7.08,9.67,4.36v-2.79h-3.96v-2.46h6.85v6.83c-1.88,1.59-4.39,2.51-7.01,2.51-4.72.1-8.87-3.89-8.75-8.45-.1-7.78,9.79-11.02,15.11-6.12l-1.99,2.06h0Z"/>
    <path class="st0" d="M352.68,168.63h-9.76v4.08h9.03v2.6h-9.03v4.29h9.95v2.72h-13v-16.42h12.81v2.72Z"/>
    <path class="st0" d="M371.05,165.91v16.42h-3.21l-8.68-11.8v11.8h-3v-16.42h3.21l8.7,11.8v-11.8h2.98Z"/>
    <path class="st0" d="M388.26,168.63h-9.76v4.08h9.03v2.6h-9.03v4.29h9.95v2.72h-13v-16.42h12.81v2.72Z"/>
    <path class="st0" d="M402.96,182.33l-3.63-5.44h-4.55v5.44h-3.05v-16.42h7.18c5,0,7.09,1.67,7.09,5.35,0,2.72-1.1,4.41-3.42,5.16l3.99,5.91h-3.59,0ZM394.78,174.26h4.29c2.7,0,3.75-.8,3.75-2.84s-1.05-2.84-3.75-2.84h-4.29v5.68Z"/>
    <path class="st0" d="M421.33,178.72h-8l-1.48,3.61h-3.45l6.92-16.42h4.01l6.94,16.42h-3.47l-1.48-3.61h0ZM420.27,176.19l-2.95-7.2-2.95,7.2h5.91,0Z"/>
    <path class="st0" d="M432.31,179.59h8.68v2.74h-11.73v-16.42h3.05v13.68h0Z"/>
    <path class="st0" d="M461.32,178.72h-8l-1.48,3.61h-3.45l6.92-16.42h4.01l6.94,16.42h-3.47l-1.48-3.61h0ZM460.26,176.19l-2.95-7.2-2.95,7.2h5.91,0Z"/>
    <path class="st0" d="M483.25,174.92c0,4.9-2.63,7.65-7.32,7.65s-7.34-2.77-7.34-7.65v-9.01h3.05v9.01c0,3.1,1.57,4.83,4.29,4.83s4.27-1.74,4.27-4.83v-9.01h3.05v9.01h0Z"/>
    <path class="st0" d="M499.78,168.58h-5.26v13.75h-3.05v-13.75h-5.26v-2.68h13.56v2.68h0Z"/>
    <path class="st0" d="M517.61,182.33h-3.05v-6.9h-8.8v6.9h-3.05v-16.42h3.05v6.78h8.8v-6.78h3.05v16.42Z"/>
    <path class="st0" d="M530.16,182.56c-4.72.1-8.87-3.89-8.75-8.45-.12-4.55,4.04-8.54,8.75-8.45,4.69-.1,8.8,3.89,8.7,8.45.1,4.55-4.01,8.54-8.7,8.45ZM530.16,179.71c3.1,0,5.51-2.51,5.51-5.58-.24-7.42-10.81-7.39-11.05,0,0,3.07,2.42,5.58,5.53,5.58h0Z"/>
    <path class="st0" d="M553.89,182.33l-3.63-5.44h-4.55v5.44h-3.05v-16.42h7.18c5,0,7.09,1.67,7.09,5.35,0,2.72-1.1,4.41-3.42,5.16l3.99,5.91h-3.59ZM545.7,174.26h4.29c2.7,0,3.75-.8,3.75-2.84s-1.05-2.84-3.75-2.84h-4.29v5.68Z"/>
    <path class="st0" d="M563.46,182.33h-3.05v-16.42h3.05v16.42Z"/>
    <path class="st0" d="M579.99,168.58h-5.26v13.75h-3.05v-13.75h-5.26v-2.68h13.56v2.68h0Z"/>
    <path class="st0" d="M598.5,165.91l-6.8,10.61v5.82h-3.07v-5.79l-6.8-10.63h3.66l4.69,7.41,4.72-7.41h3.61,0Z"/>
  </g>
  <g>
    <polygon class="st0" points="251.57 68.18 251.57 56.99 226.68 56.99 226.68 37.61 261.08 37.61 261.08 27.44 212.64 27.44 212.64 99.51 268.5 99.51 268.5 89.35 226.68 89.35 226.68 68.18 251.57 68.18"/>
    <path class="st0" d="M374.38,99.43h15.01V27.47h-34.27c-8.72,17.9-26.29,54.2-34.83,72.04h15.24l16.21-33.39,22.64,33.3h0ZM365.55,37.53h10.1v41.63l-17.26-25.62,7.16-16.01h0Z"/>
    <path class="st0" d="M281.51,29.06c-15.11,5.36-22.73,19.35-22.52,35.13-.2,15.04,7.77,27.95,22.06,32.97,4.73,1.74,10.21,2.63,16.27,2.63,4.63-.01,16.86-.17,22.98-.26v-43.49h-26.1v11.25h14v20.94c-2.65.95-2.39.99-6.92.92-16.63.5-28.68-9.12-28.26-26.71-.09-7.55,2.77-14.69,7.49-19.32,8.91-8.51,24.52-8.02,35.42-3.69l1.69-9.43c-8.73-4.47-26.14-4.94-36.11-.93h0Z"/>
    <path class="st0" d="M175.15,73.56l20.56,25.95h16.93l-21.45-25.94,12.66-14.08v-16.09c0-8.8-7.16-15.96-15.96-15.96h-38.38v72.07h14.03v-26.31h11.33l.28.35h0ZM163.13,61.96l.25-24.41h16.99c6.43,0,11.07,4.95,11.07,8.29l-.25,9.01-6.32,7.12s-21.74,0-21.74,0Z"/>
  </g>
  <g>
    <polygon class="st0" points="8.85 125.19 66.73 183.07 66.73 160 31.71 125.19 8.85 125.19"/>
    <polygon class="st0" points="72.49 160 72.49 183.07 130.36 125.19 107.51 125.19 72.49 160"/>
    <polygon class="st0" points="66.73 64.27 66.73 63.05 66.73 48.24 66.73 48.2 66.73 40.18 43.47 17.07 43.47 17.12 20.61 16.93 28.83 25.16 35.48 31.8 40.34 36.67 46.98 43.3 51.85 48.18 51.88 48.2 17.76 48.2 17.8 48.24 1.5 64.27 66.73 64.27"/>
    <polygon class="st0" points="28.84 107.56 35.48 100.91 40.35 96.06 46.98 89.42 51.85 84.54 58.5 77.9 66.73 69.67 43.86 69.67 20.75 92.93 20.8 92.93 20.61 115.79 28.84 107.56"/>
    <polygon class="st0" points="121.41 48.24 121.45 48.2 88.77 48.2 87.33 48.2 87.36 48.18 92.24 43.3 98.88 36.67 103.73 31.8 110.38 25.16 118.6 16.93 95.75 17.12 95.75 17.07 72.49 40.18 72.49 48.24 72.49 63.05 72.49 64.27 137.72 64.27 121.41 48.24"/>
    <polygon class="st0" points="87.04 84.54 91.91 89.42 98.53 96.06 103.41 100.91 110.05 107.56 118.28 115.79 118.09 92.93 118.14 92.93 95.02 69.67 72.17 69.67 80.39 77.9 87.04 84.54"/>
    <polygon class="st0" points="77.49 84.61 61.64 84.61 52.35 94.1 86.87 94.1 77.49 84.61"/>
    <polygon class="st0" points="77.49 99.7 61.64 99.7 52.35 109.19 86.87 109.19 77.49 99.7"/>
    <polygon class="st0" points="77.49 114.68 61.64 114.68 52.35 124.17 86.87 124.17 77.49 114.68"/>
    <polygon class="st0" points="52.35 139.21 86.87 139.21 77.49 129.73 61.64 129.73 52.35 139.21"/>
  </g>
</svg>