<?xml version="1.0" encoding="UTF-8"?>
<svg id="Layer_1" data-name="Layer 1" xmlns="http://www.w3.org/2000/svg" viewBox="0 0 21.47 24">
  <path d="M13.35,21.26l8.12-1.72c-.09.95-.34,1.86-.74,2.74l-8.1,1.72c.08-.96.32-1.87.72-2.74ZM20.73,17.11l-8.1,1.72v-5.16l-2.53.54v2.87c0,.26-.07.49-.21.7l-1.32,1.95c-.35.5-.82.82-1.41.93l-7.16,1.53c.09-.95.34-1.86.74-2.74l6.83-1.46v-3.25l-6.38,1.35c.09-.95.34-1.86.74-2.72l5.64-1.21V2.13c.71-.87,1.56-1.58,2.53-2.13v11.63l2.53-.54V3.39c.72-.87,1.55-1.57,2.51-2.13v9.3l6.33-1.35c-.09.95-.34,1.86-.74,2.74l-5.59,1.2v2.57l6.33-1.34c-.09.96-.34,1.87-.74,2.74h0Z" fill="#000006"/>
</svg>